<svg height="512" viewBox="0 0 32 32" width="512" xmlns="http://www.w3.org/2000/svg"><g id="_x30_8"><path d="m11 19 2-4h-1l-2 4z"/><path d="m9 19 2-4h-8c-.5522461 0-1 .4477539-1 1v3zm-2-3c.5523071 0 1 .4476929 1 1s-.4476929 1-1 1c-.5522461 0-1-.4476929-1-1s.4477539-1 1-1zm-3 0c.5523071 0 1 .4476929 1 1s-.4476929 1-1 1c-.5522461 0-1-.4476929-1-1s.4477539-1 1-1z"/><path d="m30 19v-3c0-.5522461-.4477539-1-1-1h-15l-2 4z"/><path d="m26 10h-1.5224609c-.1054688-.2978516-.2260742-.5888672-.3613281-.8730469l1.0761719-1.0766602c.3904419-.390625.3903198-1.0237427-.0001831-1.4142456l-2.8284302-2.8284302c-.3903809-.3904419-1.0233765-.3905029-1.4138794-.0001831l-1.0768433 1.076355c-.2841797-.1352538-.5751953-.2558593-.8730469-.3613281v-1.5224609c0-.5523071-.4476929-1-1-1h-4c-.5522461 0-1 .4476929-1 1v1.5224609c-.2978516.1054688-.5888672.2260742-.8730469.3613281l-1.0767822-1.076355c-.3905029-.3903198-1.0234985-.3902588-1.4139404.0001831l-2.8286133 2.8286134c-.3903809.3903808-.3905029 1.0233764-.0001221 1.4138794l1.0762939 1.0768433c-.1352538.2841796-.2558593.5751952-.3613281.8730468h-1.5224609c-.5522461 0-1 .4476929-1 1v3h6c0-1.6568604 1.3431396-3 3-3h2c-1.6542969 0-3-1.3457031-3-3s1.3457031-3 3-3 3 1.3457031 3 3-1.3457031 3-3 3h2c1.6568604 0 3 1.3431396 3 3h6v-3c0-.5523071-.4476929-1-1-1z"/><path d="m2 20v9c0 .5522461.4477539 1 1 1h26c.5522461 0 1-.4477539 1-1v-9zm10.8203125 7.1158447c.2119141.1767578.2407227.4921875.0639648.7045898-.0991211.1186523-.2412109.1796875-.3847656.1796875-.112793 0-.2260742-.0380859-.3198242-.1157227l-3-2.5c-.1137695-.0952147-.1796875-.2358397-.1796875-.3842772s.065918-.2890625.1796875-.3842773l3-2.5c.2128906-.1767578.527832-.1479492.7045898.0639648.1767578.2124023.1479492.527832-.0639648.7045898l-2.5390625 2.1157227zm5.1085815-4.3590088-3 5c-.09375.15625-.2592773.2426758-.4291992.2426758-.0874023 0-.1762695-.0229492-.2568359-.0712891-.2368164-.1420898-.3134766-.4492188-.1713867-.6860352l3-5c.1425781-.2373047.453125-.3120117.6855469-.1713867.2373046.1420899.3144531.4492188.1718749.6860352zm4.8916626 2.6275635-3 2.5c-.09375.0776367-.2070313.1157227-.3198242.1157227-.1435547 0-.2856445-.0610352-.3847656-.1796875-.1767578-.2124023-.1479492-.527832.0639648-.7045898l2.5390625-2.1157227-2.5390625-2.1157227c-.2119141-.1767578-.2407227-.4921875-.0639648-.7045898.1767578-.2119141.4916992-.2407227.7045898-.0639648l3 2.5c.1137695.0952148.1796875.2358398.1796875.3842773s-.0659179.2890625-.1796875.3842773z"/></g></svg>