<svg viewBox="0 0 512 512" xmlns="http://www.w3.org/2000/svg"><g id="GLYPH"><path d="m496.52 129.86c-13.43-49.48-64.89-100.94-114.37-114.37-30.33-7.57-70.98-15.36-126.15-15.49-55.16.14-95.81 7.92-126.14 15.49-49.48 13.44-100.94 64.89-114.37 114.37-7.57 30.33-15.35 70.98-15.49 126.14.14 55.17 7.92 95.82 15.49 126.15 13.43 49.48 64.89 100.93 114.37 114.37 30.33 7.57 71 15.35 126.14 15.49 55.17-.14 95.82-7.92 126.15-15.49 49.48-13.44 100.94-64.89 114.37-114.37 7.57-30.33 15.35-71 15.49-126.15-.14-55.16-7.92-95.81-15.49-126.14zm-329.07 113.21a15.94 15.94 0 0 1 22.55 0l50.13 50.14v-201.21a16 16 0 0 1 15.95-15.94 15.94 15.94 0 0 1 15.92 15.94v201.2l49.83-49.82a16.24 16.24 0 0 1 23 0 16 16 0 0 1 -.22 22.33l-77 77a16.37 16.37 0 0 1 -23.18 0l-77.05-77.07a16 16 0 0 1 .07-22.57zm258.73 94.47a78.8 78.8 0 0 1 -78.7 78.7h-182.8a78.79 78.79 0 0 1 -78.68-78.7v-12.78a15.95 15.95 0 0 1 31.89 0v12.78a46.86 46.86 0 0 0 46.81 46.81h182.8a46.86 46.86 0 0 0 46.81-46.81v-12.78a15.95 15.95 0 0 1 31.89 0z"/></g></svg>