<svg id="Layer_1" viewBox="0 0 512 512" xmlns="http://www.w3.org/2000/svg" data-name="Layer 1"><path d="m243.368 344.677-11.442 47.053c-2.366-1.381-4.947-2.48-7.719-3.222-.001 0-.003 0-.004 0l-15.344-4.112v-52.881c0-4.418-3.581-7.999-7.999-7.999s-7.999 3.581-7.999 7.999v59.018c0 3.701 2.517 6.807 5.931 7.719l-.002.007 21.274 5.702s.003 0 .004.001c4.079 1.093 7.337 3.728 9.329 7.108.063.113.122.229.19.339 1.89 3.397 2.525 7.498 1.442 11.541-2.211 8.237-10.718 13.141-18.96 10.934l-26.53-7.115c-14.145-3.775-23.649-16.169-23.649-30.84v-62.391c0-25.917 22.97-47.003 51.203-47.003h85.815c28.233 0 51.203 21.086 51.203 47.003v5.031h-30.971v-7.054c0-4.418-3.581-7.999-7.999-7.999s-7.999 3.581-7.999 7.999v7.054h-52c-3.69 0-6.901 2.524-7.773 6.109zm12.647-313.651-243.015 177.388 15.461 21.173 222.838-162.653c2.81-2.051 6.623-2.051 9.433 0l222.808 162.652 15.46-21.173zm-136.226 79.63 26.47-19.328h-47.006v34.318zm136.226 159.879c14.407 0 26.175-7.015 34.978-20.849 7.664-12.045 12.24-28.688 12.24-44.519 0-26.036-21.182-47.218-47.218-47.218s-47.248 21.182-47.248 47.218c0 15.445 4.44 31.865 11.877 43.924 8.776 14.229 20.676 21.443 35.371 21.443zm-89.77-195.206h1.904l5.978-4.351v-21.807h-90.756v26.157h82.874zm145.539 312.778c-3.501 0-6.349 2.862-6.349 6.38s2.848 6.349 6.349 6.349 6.38-2.848 6.38-6.349-2.862-6.38-6.38-6.38zm72.505-33.541-18.211 79.841h-122.587c1.274-2.255 2.289-4.702 2.99-7.315 1.93-7.206 1.182-14.507-1.62-20.851l12.566-51.675h126.861zm-50.126 39.921c0-12.34-10.039-22.379-22.378-22.379s-22.348 10.039-22.348 22.379 10.025 22.348 22.348 22.348 22.378-10.025 22.378-22.348zm144.665 78.487c0 4.418-3.581 7.999-7.999 7.999h-429.657c-4.418 0-7.999-3.581-7.999-7.999s3.581-7.999 7.999-7.999h31.254v-247.672l183.589-134.003 183.559 133.999v247.677h31.255c4.418 0 7.999 3.581 7.999 7.999zm-74.057-7.999v-22.568c0-4.418-3.581-7.999-7.999-7.999h-14.284l19.63-86.062c.541-2.373-.027-4.864-1.545-6.766-1.518-1.903-3.82-3.011-6.254-3.011h-28.209v-5.031c0-34.739-30.146-63.002-67.202-63.002h-4.195c3.556-3.526 6.825-7.618 9.779-12.26 9.368-14.723 14.74-34.08 14.74-53.107 0-34.857-28.359-63.216-63.216-63.216s-63.247 28.359-63.247 63.216c0 18.285 5.331 37.844 14.259 52.322 3.065 4.97 6.49 9.32 10.237 13.045h-4.172c-37.055 0-67.202 28.262-67.202 63.002v62.391c0 15.725 7.283 29.705 19.179 38.48h-49.84c-4.418 0-7.999 3.581-7.999 7.999v22.568h15.999v-14.569h92.656c.06 0 .121.006.181.006.047 0 .094-.006.141-.006h172.566v14.569h15.999z"/></svg>