<svg height="512" viewBox="0 0 32 32" width="512" xmlns="http://www.w3.org/2000/svg"><g id="_x30_7"><circle cx="23" cy="5" r="3"/><path d="m25 8h-2-2c-1.6568546 0-3 1.3431454-3 3h10c0-1.6568546-1.3431454-3-3-3z"/><path d="m7 10c-.2558594 0-.5117188-.0976563-.7070313-.2929688l-2-2c-.390625-.390625-.390625-1.0234375 0-1.4140625l2-2c.390625-.390625 1.0234375-.390625 1.4140625 0s.390625 1.0234375 0 1.4140625l-1.2929687 1.2929688 1.2929688 1.2929688c.390625.390625.390625 1.0234375 0 1.4140625-.1953125.1953125-.4511719.2929687-.7070313.2929687z"/><path d="m15 10c-.2558594 0-.5117188-.0976563-.7070313-.2929688-.390625-.390625-.390625-1.0234375 0-1.4140625l1.2929688-1.2929687-1.2929688-1.2929688c-.390625-.390625-.390625-1.0234375 0-1.4140625s1.0234375-.390625 1.4140625 0l2 2c.390625.390625.390625 1.0234375 0 1.4140625l-2 2c-.1953124.1953126-.4511718.2929688-.7070312.2929688z"/><path d="m9.9990234 10c-.1499023 0-.3027344-.0336914-.4462891-.1054688-.4941405-.2470703-.6943359-.8476562-.4472655-1.3417968l2-4c.2470703-.4936523.8466797-.6943359 1.3417969-.4472656.4941406.2470703.6943359.8476563.4472656 1.3417969l-2 4c-.175293.3505859-.5283204.5527343-.8955079.5527343z"/><path d="m11 16 2-4h-1l-2 4z"/><path d="m9 16 2-4h-8c-.5522461 0-1 .4477539-1 1v3zm-2-3c.5523071 0 1 .4476929 1 1s-.4476929 1-1 1c-.5522461 0-1-.4476929-1-1s.4477539-1 1-1zm-3 0c.5523071 0 1 .4476929 1 1s-.4476929 1-1 1c-.5522461 0-1-.4476929-1-1s.4477539-1 1-1z"/><path d="m30 16v-3c0-.5522461-.4477539-1-1-1h-15l-2 4z"/><path d="m2 17v12c0 .5522461.4477539 1 1 1h26c.5522461 0 1-.4477539 1-1v-12zm7.5 12h-5c-.2763672 0-.5-.2236328-.5-.5s.2236328-.5.5-.5h5c.2763672 0 .5.2236328.5.5s-.2236328.5-.5.5zm0-2h-5c-.2763672 0-.5-.2236328-.5-.5s.2236328-.5.5-.5h5c.2763672 0 .5.2236328.5.5s-.2236328.5-.5.5zm.5-3c0 .5522461-.4476929 1-1 1h-4c-.5523071 0-1-.4477539-1-1v-5c0-.5523071.4476929-1 1-1h4c.5523071 0 1 .4476929 1 1zm3 4c-.5523071 0-1-.4477539-1-1 0-.5523071.4476929-1 1-1s1 .4476929 1 1c0 .5522461-.4476929 1-1 1zm3 0c-.5523071 0-1-.4477539-1-1 0-.5523071.4476929-1 1-1s1 .4476929 1 1c0 .5522461-.4476929 1-1 1zm3 0c-.5523071 0-1-.4477539-1-1 0-.5523071.4476929-1 1-1s1 .4476929 1 1c0 .5522461-.4476929 1-1 1zm2-4c0 .5522461-.4476929 1-1 1h-8c-.5523071 0-1-.4477539-1-1v-5c0-.5523071.4476929-1 1-1h8c.5523071 0 1 .4476929 1 1zm6.5 5h-5c-.2763672 0-.5-.2236328-.5-.5s.2236328-.5.5-.5h5c.2763672 0 .5.2236328.5.5s-.2236328.5-.5.5zm0-2h-5c-.2763672 0-.5-.2236328-.5-.5s.2236328-.5.5-.5h5c.2763672 0 .5.2236328.5.5s-.2236328.5-.5.5zm.5-3c0 .5522461-.4476929 1-1 1h-4c-.5523071 0-1-.4477539-1-1v-5c0-.5523071.4476929-1 1-1h4c.5523071 0 1 .4476929 1 1z"/><path d="m5 19h4v5h-4z"/><path d="m12 19h8v5h-8z"/><path d="m23 19h4v5h-4z"/></g></svg>