<?xml version="1.0" standalone="no"?>
<!DOCTYPE svg PUBLIC "-//W3C//DTD SVG 20010904//EN"
 "http://www.w3.org/TR/2001/REC-SVG-20010904/DTD/svg10.dtd">
<svg version="1.0" xmlns="http://www.w3.org/2000/svg"
 width="191.000000pt" height="222.000000pt" viewBox="0 0 191.000000 222.000000"
 preserveAspectRatio="xMidYMid meet">
<metadata>
Created by potrace 1.16, written by Peter Selinger 2001-2019
</metadata>
<g transform="translate(0.000000,222.000000) scale(0.100000,-0.100000)"
fill="#000000" stroke="none">
<path d="M915 2216 c-5 -3 -22 -7 -37 -10 l-28 -6 0 -125 0 -125 -40 0 -40 0
0 115 c0 85 -3 115 -12 115 -11 0 -46 -8 -165 -35 -22 -5 -23 -10 -23 -100 l0
-95 -40 0 -40 0 0 85 c0 62 -3 85 -12 85 -7 -1 -51 -9 -98 -18 l-85 -18 -3
-67 -3 -67 -39 0 -40 0 0 55 c0 64 5 63 -115 36 l-80 -17 -3 -122 -3 -122 941
0 941 0 -3 122 -3 122 -80 17 c-120 27 -115 28 -115 -36 l0 -55 -40 0 -40 0 0
64 c0 53 -3 66 -17 70 -24 7 -162 36 -174 36 -5 0 -9 -38 -9 -85 l0 -85 -40 0
-40 0 0 95 c0 90 -1 95 -22 100 -13 2 -54 11 -91 20 -38 8 -72 15 -78 15 -5 0
-9 -50 -9 -115 l0 -115 -40 0 -40 0 0 124 c0 100 -3 125 -15 130 -21 8 -108
16 -120 12z"/>
<path d="M0 1126 l0 -583 70 -41 70 -40 90 36 c49 19 90 38 90 41 0 3 -34 25
-75 49 l-75 42 0 450 0 450 775 0 775 0 0 -453 0 -453 -35 -17 c-19 -9 -35
-20 -35 -25 0 -4 36 -26 81 -47 l80 -40 37 20 37 20 3 588 2 587 -945 0 -945
0 0 -584z"/>
<path d="M320 1085 l0 -375 85 0 85 0 0 233 0 232 68 -119 c38 -66 73 -121 78
-123 5 -1 38 50 74 113 l65 116 3 -226 2 -226 85 0 85 0 0 375 0 375 -84 0
-84 0 -67 -122 c-37 -68 -70 -127 -74 -131 -5 -5 -40 49 -78 120 l-69 128 -87
3 -87 3 0 -376z"/>
<path d="M1090 1085 l0 -375 250 0 250 0 0 154 0 154 -41 35 -42 34 42 33 41
33 0 154 0 153 -250 0 -250 0 0 -375z m330 168 c0 -58 -30 -83 -102 -83 l-58
0 0 60 0 60 80 0 80 0 0 -37z m-28 -270 c21 -20 28 -36 28 -65 l0 -38 -80 0
-80 0 0 65 0 65 52 0 c43 0 57 -5 80 -27z"/>
<path d="M1113 549 l-201 -100 -125 62 -125 62 -206 -83 c-161 -66 -203 -87
-194 -96 28 -25 680 -395 692 -392 20 5 776 442 776 449 0 7 -395 199 -407
198 -4 0 -99 -45 -210 -100z"/>
</g>
</svg>
