<?xml version="1.0" standalone="no"?>
<!DOCTYPE svg PUBLIC "-//W3C//DTD SVG 20010904//EN"
 "http://www.w3.org/TR/2001/REC-SVG-20010904/DTD/svg10.dtd">
<svg version="1.0" xmlns="http://www.w3.org/2000/svg"
 width="202.000000pt" height="202.000000pt" viewBox="0 0 202.000000 202.000000"
 preserveAspectRatio="xMidYMid meet">
<metadata>
Created by potrace 1.16, written by Peter Selinger 2001-2019
</metadata>
<g transform="translate(0.000000,202.000000) scale(0.100000,-0.100000)"
fill="#000000" stroke="none">
<path d="M10 1010 l0 -1000 1000 0 1000 0 0 1000 0 1000 -1000 0 -1000 0 0
-1000z m1234 587 c189 -87 289 -326 231 -552 -57 -222 -214 -340 -418 -313
-72 10 -110 29 -167 84 l-45 43 3 -234 3 -235 -161 0 -160 0 0 610 0 610 141
0 141 0 -4 -55 c-3 -59 2 -67 25 -34 24 34 97 82 146 96 72 20 197 11 265 -20z"/>
<path d="M985 1364 c-6 -1 -22 -5 -37 -8 -15 -4 -43 -20 -63 -37 l-35 -31 0
-93 0 -92 40 -46 c45 -51 94 -72 146 -62 138 25 179 262 59 341 -25 16 -90 33
-110 28z"/>
</g>
</svg>
