<svg height="512" viewBox="0 0 480 480" width="512" xmlns="http://www.w3.org/2000/svg"
  xmlns:xlink="http://www.w3.org/1999/xlink">
  <radialGradient id="radial-gradient" cx="240" cy="240" gradientUnits="userSpaceOnUse" r="240">
    <stop offset=".88" stop-opacity="0" />
    <stop offset="1" stop-opacity=".3" />
  </radialGradient>
  <g id="Layer_2" data-name="Layer 2">
    <g id="Ukraine">
      <path
        d="m480 240c0 132.51-107.39 239.94-239.89 240h-2.59a242.26 242.26 0 0 1 -34.74-2.87 236 236 0 0 1 -27.9-6.06 240.08 240.08 0 0 1 -174.88-231.07c0-132.53 107.42-240 240-240h.11a239.26 239.26 0 0 1 174.34 75.17 239.79 239.79 0 0 1 65.55 164.83z"
        fill="#005bbb" />
      <path
        d="m480 240.5c-.27 132.25-107.5 239.39-239.79 239.5h-2.69a242.26 242.26 0 0 1 -34.74-2.87 236 236 0 0 1 -27.9-6.06 240.09 240.09 0 0 1 -174.88-228.62c0-.65 0-1.3 0-1.95z"
        fill="#ffd500" />
      <path
        d="m240 0c-132.55 0-240 107.45-240 240s107.45 240 240 240 240-107.45 240-240-107.45-240-240-240zm0 452c-116.9 0-212-95.1-212-212s95.1-212 212-212 212 95.1 212 212-95.1 212-212 212z"
        fill="url(#radial-gradient)" />
    </g>
  </g>
</svg>